<svg xmlns="http://www.w3.org/2000/svg" width="24" height="24" viewBox="0 0 24 24" fill="none" stroke="currentColor" stroke-width="2" stroke-linecap="round" stroke-linejoin="round">
  <path d="M12 2C6.48 2 2 6.48 2 12s4.48 10 10 10 10-4.48 10-10S17.52 2 12 2z"/>
  <path d="M8 9a2 2 0 0 1 2-2h0a2 2 0 0 1 2 2v0a2 2 0 0 1-2 2h0a2 2 0 0 1-2-2z"/>
  <path d="M12 9a2 2 0 0 1 2-2h0a2 2 0 0 1 2 2v0a2 2 0 0 1-2 2h0a2 2 0 0 1-2-2z"/>
  <path d="M9 14c0 0 1.5 2 3 2s3-2 3-2"/>
  <path d="M7 11.5L5 12"/>
  <path d="M17 11.5L19 12"/>
</svg>
